<svg width="128" height="128" viewBox="0 0 128 128" fill="none" xmlns="http://www.w3.org/2000/svg">
<path d="M117.5 33.3L117.8 33.1C117.2 32 116.3 31 115.4 30.5L67.1 2.7C66.3 2.2 65.2 2 64 2C62.8 2 61.7 2.3 60.9 2.7L12.9 30.6C11.2 31.6 10 34.1 10 36V91.7C10 92.8 10.2 94 10.9 95.1L10.7 95.2C11.2 96 11.9 96.7 12.6 97.1L60.8 125C61.6 125.5 62.7 125.7 63.9 125.7C65.1 125.7 66.2 125.4 67 125L115 97.1C116.7 96.1 117.9 93.6 117.9 91.7V35.9C118 35.1 117.9 34.2 117.5 33.3ZM64 103.3C42.2 103.3 24.5 85.6 24.5 63.8C24.5 42 42.2 24.3 64 24.3C78.7 24.3 91.5 32.4 98.3 44.3L85.3 51.8C81.1 44.3 73.1 39.3 64 39.3C50.5 39.3 39.5 50.3 39.5 63.8C39.5 77.3 50.5 88.3 64 88.3C73.1 88.3 81.1 83.3 85.3 75.9L98.2 83.5C91.4 95.3 78.6 103.3 64 103.3ZM115 61.8H111.8L110.9 65.8H115V70.8H110L108.8 76.8H103.9L105.1 70.8H101.3L100.1 76.8H95.3L96.5 70.8H94V65.8H97.5L98.4 61.8H94V56.8H99.3L100.5 50.8H105.4L104.2 56.8H108L109.2 50.8H114L112.8 56.8H115V61.8ZM102.3 65.8H106.1L107 61.8H103.2L102.3 65.8Z" fill="#2B7B8C"/>
</svg>
