<svg width="25" height="25" viewBox="0 0 25 25" fill="none" xmlns="http://www.w3.org/2000/svg">
<path d="M10.4168 14.5834H14.5835V12.5H10.4168V14.5834ZM10.4168 11.4584H18.7502V9.37504H10.4168V11.4584ZM10.4168 8.33337H18.7502V6.25004H10.4168V8.33337ZM8.3335 18.75C7.76058 18.75 7.27013 18.546 6.86214 18.1381C6.45416 17.7301 6.25016 17.2396 6.25016 16.6667V4.16671C6.25016 3.59379 6.45416 3.10334 6.86214 2.69535C7.27013 2.28737 7.76058 2.08337 8.3335 2.08337H20.8335C21.4064 2.08337 21.8969 2.28737 22.3049 2.69535C22.7128 3.10334 22.9168 3.59379 22.9168 4.16671V16.6667C22.9168 17.2396 22.7128 17.7301 22.3049 18.1381C21.8969 18.546 21.4064 18.75 20.8335 18.75H8.3335ZM8.3335 16.6667H20.8335V4.16671H8.3335V16.6667ZM4.16683 22.9167C3.59391 22.9167 3.10346 22.7127 2.69548 22.3047C2.28749 21.8967 2.0835 21.4063 2.0835 20.8334V6.25004H4.16683V20.8334H18.7502V22.9167H4.16683Z" fill="#A3C0C6"/>
</svg>
