<svg width="128" height="128" viewBox="0 0 128 128" fill="none" xmlns="http://www.w3.org/2000/svg">
<g clip-path="url(#clip0_115_59)">
<path d="M117.688 98.0348C110.715 97.8438 105.391 98.4958 100.836 100.414C99.5432 100.961 97.4812 100.973 97.2702 102.594C97.9812 103.34 98.0902 104.453 98.6572 105.371C99.7432 107.125 101.579 109.484 103.216 110.723C105.005 112.071 106.849 113.516 108.767 114.684C112.181 116.766 115.99 117.954 119.271 120.036C121.209 121.266 123.13 122.813 125.021 124.2C125.955 124.884 126.584 125.95 127.794 126.38V126.185C127.157 125.373 126.993 124.255 126.407 123.408L123.829 120.83C121.309 117.486 118.11 114.549 114.712 112.111C112.001 110.162 105.931 107.533 104.802 104.381L104.603 104.182C106.525 103.963 108.775 103.268 110.552 102.791C113.532 101.994 116.197 102.201 119.271 101.404L123.435 100.217V99.4238C121.88 97.8298 120.771 95.7168 119.076 94.2718C114.635 90.4908 109.791 86.7168 104.803 83.5688C102.037 81.8228 98.6192 80.6858 95.6862 79.2058C94.6982 78.7098 92.9672 78.4478 92.3152 77.6198C90.7762 75.6588 89.9362 73.1708 88.7492 70.8818C86.2612 66.0888 83.8192 60.8588 81.6122 55.8158C80.1082 52.3788 79.1282 48.9878 77.2532 45.9058C68.2532 31.1088 58.5662 22.1758 43.5582 13.3978C40.3632 11.5308 36.5192 10.7928 32.4562 9.82781L25.9132 9.43281C24.5812 8.87781 23.1982 7.24881 21.9482 6.45581C16.9772 3.31281 4.22318 -3.51919 0.53918 5.46481C-1.78482 11.1328 4.01618 16.6638 6.09018 19.5388C7.54718 21.5508 9.41018 23.8118 10.4492 26.0778C11.1372 27.5698 11.2542 29.0618 11.8402 30.6368C13.2782 34.5198 14.5352 38.7458 16.3992 42.3318C17.3402 44.1478 18.3792 46.0588 19.5712 47.6838C20.2982 48.6798 21.5512 49.1218 21.7512 50.6568C20.5242 52.3718 20.4542 55.0318 19.7672 57.1998C16.6692 66.9698 17.8412 79.1098 22.3452 86.3368C23.7282 88.5598 26.9862 93.3168 31.4622 91.4928C35.3802 89.8948 34.5052 84.9538 35.6262 80.5908C35.8802 79.6028 35.7242 78.8758 36.2202 78.2118V78.4108L39.7902 85.5438C42.4312 89.7978 47.1142 94.2428 51.0872 97.2428C53.1462 98.7978 54.7672 101.485 57.4312 102.395V102.196H57.2322C56.7162 101.391 55.9082 101.059 55.2522 100.415C53.7012 98.8918 51.9752 97.0008 50.6932 95.2588C47.0802 90.3568 43.8882 84.9888 40.9822 79.4038C39.5912 76.7358 38.3842 73.7948 37.2122 71.0798C36.7592 70.0328 36.7672 68.4468 35.8252 67.9078C34.5442 69.8958 32.6532 71.5058 31.6612 73.8528C30.0792 77.6068 29.8722 82.1888 29.2862 86.9348C28.9382 87.0598 29.0912 86.9738 28.8882 87.1338C26.1262 86.4658 25.1582 83.6258 24.1302 81.1848C21.5362 75.0208 21.0522 65.0948 23.3372 57.9938C23.9272 56.1578 26.5992 50.3768 25.5172 48.6778C25.0012 46.9868 23.2982 46.0058 22.3452 44.7128C21.1652 43.1148 19.9902 41.0098 19.1732 39.1618C17.0482 34.3568 16.0602 28.9588 13.8212 24.0998C12.7512 21.7758 10.9462 19.4238 9.46218 17.3618C7.81718 15.0728 5.97818 13.3848 4.70418 10.6198C4.25118 9.63581 3.63818 8.06081 4.30618 7.05381C4.52118 6.36981 4.82218 6.08481 5.49718 5.86281C6.64518 4.97581 9.84918 6.15981 11.0442 6.65581C14.2242 7.97581 16.8762 9.23381 19.5712 11.0188C20.8602 11.8738 22.1692 13.5308 23.7312 13.9918H25.5162C28.3052 14.6328 31.4302 14.1868 34.0392 14.9798C38.6482 16.3818 42.7772 18.5618 46.5272 20.9288C57.9492 28.1438 67.2932 38.4088 73.6832 50.6628C74.7102 52.6358 75.1562 54.5148 76.0622 56.6078C77.8862 60.8268 80.1872 65.1668 82.0032 69.2958C83.8192 73.4088 85.5852 77.5658 88.1512 80.9908C89.4992 82.7918 94.7022 83.7568 97.0692 84.7568C98.7292 85.4558 101.448 86.1868 103.018 87.1358C106.018 88.9448 108.924 91.1008 111.741 93.0808C113.143 94.0728 117.471 96.2488 117.686 98.0378L117.688 98.0348ZM29.0832 22.5148C27.6302 22.4878 26.6032 22.6708 25.5172 22.9098V23.1088H25.7122C26.4072 24.5308 27.6302 25.4488 28.4892 26.6748L30.4692 30.8388L30.6682 30.6438C31.8952 29.7768 32.4572 28.3938 32.4492 26.2808C31.9572 25.7608 31.8872 25.1168 31.4572 24.4958C30.8952 23.6718 29.7972 23.2068 29.0822 22.5158L29.0832 22.5148Z" fill="#2B7B8C"/>
</g>
<defs>
<clipPath id="clip0_115_59">
<rect width="128" height="128" fill="white"/>
</clipPath>
</defs>
</svg>
