<svg width="128" height="128" viewBox="0 0 128 128" fill="none" xmlns="http://www.w3.org/2000/svg">
<g clip-path="url(#clip0_115_53)">
<path d="M75.323 0.00100002C74.425 0.00100002 73.527 0.2 72.729 0.499C74.425 1.597 75.323 3.093 75.822 4.789C75.822 4.989 75.922 5.189 75.922 5.388C75.922 5.588 76.022 5.787 76.022 5.986C76.122 8.88 75.223 9.279 74.625 10.975C73.627 13.169 73.927 15.564 75.124 17.459C75.224 17.659 75.324 17.959 75.523 18.158C74.226 9.778 81.209 8.58 82.506 5.986C82.606 3.692 80.711 2.196 79.214 1.098C77.718 0.2 76.52 0 75.324 0L75.323 0.00100002ZM85.8 1.795C85.7 2.593 85.8 2.394 85.7 2.793C85.7 3.092 85.7 3.391 85.6 3.691C85.5 3.99 85.5 4.19 85.4 4.489C85.3 4.789 85.201 4.988 85.101 5.287C85.001 5.487 84.901 5.686 84.801 5.985C84.702 6.085 84.602 6.285 84.503 6.385C84.403 6.485 84.403 6.584 84.303 6.684C84.103 6.884 84.003 7.182 83.804 7.382L83.206 7.981C83.006 8.181 82.806 8.38 82.607 8.479C81.909 8.979 81.111 9.377 80.412 9.876C80.212 10.076 79.913 10.176 79.714 10.375C79.514 10.575 79.314 10.675 79.115 10.874L78.517 11.472C78.317 11.672 78.117 11.872 78.017 12.171C77.818 12.371 77.718 12.67 77.519 12.869C77.419 13.169 77.319 13.368 77.12 13.667C77.02 13.967 76.92 14.167 76.82 14.465C76.72 14.765 76.621 15.064 76.621 15.263C76.621 15.363 76.621 15.563 76.521 15.663C76.521 15.763 76.521 15.962 76.421 16.062V17.458C76.421 17.758 76.421 17.958 76.521 18.256C76.521 18.556 76.621 18.756 76.721 19.055C76.821 19.354 76.921 19.553 77.021 19.853C77.12 20.053 77.22 20.152 77.22 20.352L69.637 17.458C68.3864 17.0792 67.1222 16.7466 65.847 16.461C65.148 16.261 64.45 16.161 63.751 15.961C61.7715 15.5646 59.7738 15.2652 57.765 15.064H57.565C55.57 14.864 53.675 14.764 51.68 14.764C50.183 14.764 48.786 14.864 47.39 14.964C45.394 15.064 43.4 15.364 41.404 15.663L39.907 15.962C38.91 16.162 37.912 16.361 36.914 16.66C36.415 16.76 35.917 16.96 35.418 17.06C34.919 17.259 34.42 17.458 34.021 17.658C33.622 17.858 33.323 17.958 32.924 18.157C32.824 18.157 32.824 18.157 32.724 18.257C32.424 18.456 32.126 18.556 31.826 18.755C31.726 18.755 31.626 18.855 31.626 18.855C31.228 19.055 30.928 19.255 30.629 19.354C30.429 19.454 30.13 19.554 29.931 19.654C29.831 19.753 29.731 19.753 29.631 19.853C29.332 20.053 29.033 20.152 28.733 20.351C28.434 20.551 28.135 20.651 27.935 20.851C27.735 21.05 27.436 21.15 27.237 21.349C27.237 21.349 27.137 21.349 27.137 21.449C26.937 21.549 26.738 21.749 26.539 21.948L26.439 22.048C26.239 22.148 26.139 22.347 25.94 22.447C25.84 22.447 25.84 22.547 25.74 22.547C25.541 22.647 25.441 22.846 25.242 22.945C25.242 23.045 25.142 23.045 25.142 23.045L24.543 23.644L24.443 23.744L23.845 24.342C23.845 24.342 23.845 24.442 23.745 24.442L23.246 24.941C23.146 25.041 23.046 25.041 23.046 25.141L22.448 25.739C22.448 25.839 22.348 25.839 22.348 25.939L21.55 26.736L21.45 26.836C20.952 27.435 20.353 27.934 19.755 28.433C19.156 28.931 18.557 29.43 17.859 29.929C17.161 30.428 16.562 30.827 15.864 31.226C15.165 31.625 14.467 31.924 13.769 32.224C13.07 32.523 12.372 32.822 11.674 33.022C10.277 33.322 8.88 33.92 7.683 34.019C7.683 33.521 7.383 33.62 7.084 33.62C6.785 33.72 6.486 33.72 6.286 33.82C5.986 33.92 5.787 34.02 5.488 34.12C5.20343 34.2116 4.93438 34.3458 4.69 34.518C4.49 34.718 4.191 34.818 3.992 35.018C3.792 35.217 3.492 35.416 3.293 35.616C3.093 35.816 2.794 36.015 2.595 36.214C2.395 36.414 2.195 36.614 1.996 36.913C1.796 37.212 1.597 37.411 1.497 37.711C1.298 37.911 1.198 38.21 0.999 38.509C0.899 38.809 0.699 39.107 0.599 39.407L0.3 40.305C0.2 40.604 0.2 40.803 0.1 41.103V41.203C0 41.503 0 41.901 0 42.101C0.1 42.001 0.1 42.201 0.1 42.4V42.799C0.1 42.999 0.2 43.198 0.2 43.397C0.3 43.597 0.3 43.797 0.4 43.996C0.499 44.196 0.599 44.395 0.798 44.595C0.898 44.795 1.098 44.994 1.198 45.193C1.397 45.393 1.596 45.593 1.796 45.692C1.996 45.892 2.195 46.092 2.394 46.191C3.192 46.889 3.392 47.089 4.39 47.687C4.59 47.787 4.689 47.887 4.889 47.987H4.989V48.187C4.989 48.485 5.089 48.685 5.188 48.984C5.288 49.284 5.388 49.583 5.488 49.782L5.786 50.381C5.786 50.481 5.886 50.481 5.886 50.581C5.986 50.88 6.186 51.079 6.286 51.279C6.485 51.479 6.585 51.778 6.784 51.977L7.383 52.576L7.981 53.174H8.081C8.281 53.374 8.48 53.474 8.68 53.674C8.88 53.874 9.179 53.973 9.378 54.072C9.578 54.172 9.877 54.372 10.176 54.472C10.376 54.572 10.576 54.671 10.874 54.671C10.874 54.671 10.974 54.671 10.974 54.771C11.074 54.771 11.274 54.871 11.374 54.871C11.274 56.666 11.274 58.362 11.474 58.961C11.772 59.659 13.269 57.564 14.666 55.27C14.466 57.564 14.366 60.258 14.666 61.056C15.065 61.854 16.96 59.26 18.756 56.466C42.101 51.079 63.451 67.241 65.746 90.088C65.346 86.496 60.956 84.501 58.862 85C57.864 87.394 56.168 90.587 53.475 92.482C53.674 90.287 53.575 88.092 53.175 85.898C52.477 88.891 51.08 91.784 49.085 94.178C45.992 94.378 42.8 92.881 41.203 90.587C41.103 90.487 41.003 90.287 40.904 90.187C40.804 89.988 40.704 89.689 40.604 89.489C40.504 89.289 40.405 88.99 40.405 88.791V87.594C40.405 87.394 40.505 87.094 40.605 86.895C40.705 86.696 40.705 86.396 40.805 86.197C40.904 85.997 41.004 85.698 41.203 85.499C41.802 83.902 41.802 82.605 40.704 81.907L40.106 81.607C40.006 81.607 39.806 81.508 39.706 81.508C39.606 81.508 39.507 81.408 39.407 81.408C39.208 81.308 38.909 81.308 38.709 81.208C38.509 81.108 38.21 81.108 38.011 81.108C37.811 81.108 37.511 81.009 37.312 81.009H36.814C36.514 81.009 36.314 81.009 36.115 81.109C35.915 81.109 35.616 81.209 35.417 81.209C35.217 81.309 34.918 81.309 34.718 81.409C34.519 81.508 34.319 81.608 34.02 81.707L33.421 82.007C25.739 86.995 30.329 98.767 35.517 102.159C33.521 102.559 31.526 102.957 30.927 103.357L30.827 103.457C32.224 104.354 33.721 105.053 35.317 105.651C37.412 106.35 39.707 106.948 40.704 107.248C43.398 107.846 46.192 108.046 48.985 107.846C63.551 106.848 75.523 95.675 77.717 81.109C77.817 81.409 77.817 81.707 77.917 82.007C78.017 82.605 78.117 83.204 78.217 83.902C78.317 84.202 78.317 84.501 78.317 84.8V84.9C78.317 85.2 78.416 85.499 78.416 85.798C78.416 86.197 78.516 86.496 78.516 86.895V91.085C78.516 91.385 78.416 91.585 78.416 91.884V92.183C78.416 92.483 78.316 92.782 78.316 93.181C78.216 93.48 78.216 93.779 78.116 94.079V94.179C78.016 94.478 78.016 94.777 77.917 95.076V95.176C77.817 95.476 77.817 95.775 77.717 96.074V96.174L77.418 97.072V97.172C77.318 97.471 77.218 97.87 77.119 98.169C77.019 98.469 76.919 98.768 76.719 99.167C76.62 99.466 76.52 99.865 76.321 100.164C76.221 100.464 76.021 100.763 75.921 101.162C75.822 101.462 75.622 101.761 75.523 102.06C75.523 102.16 75.423 102.26 75.423 102.26C75.423 102.26 75.423 102.36 75.323 102.36C73.228 106.649 70.036 110.44 66.045 113.433C65.745 113.633 65.546 113.833 65.247 114.032C65.147 114.132 65.047 114.132 65.047 114.232C64.847 114.431 64.548 114.531 64.349 114.73L64.449 114.93C64.947 114.83 65.347 114.83 65.845 114.73C66.743 114.63 67.541 114.43 68.439 114.231C68.639 114.231 68.939 114.131 69.138 114.031C69.338 114.031 69.437 113.931 69.636 113.931C69.835 113.931 70.136 113.832 70.335 113.832C70.535 113.732 70.734 113.732 70.933 113.632C74.226 112.835 77.418 111.737 80.511 110.44C75.223 117.623 68.24 123.41 60.059 127.2C63.85 126.901 67.641 126.303 71.332 125.205C84.5863 121.313 95.7711 112.351 102.459 100.264C101.063 107.846 98.069 115.129 93.58 121.514C96.773 119.419 99.666 116.924 102.36 114.231C109.742 106.549 114.63 96.672 116.227 86.197C117.325 91.385 117.724 96.772 117.225 102.06C141.069 68.838 119.22 34.419 110.042 25.34C110.042 25.24 109.942 25.24 109.942 25.14C109.942 25.54 109.942 25.938 109.842 26.338C109.742 27.136 109.642 27.834 109.542 28.532C109.343 29.231 109.144 30.029 108.944 30.727C108.744 31.426 108.445 32.124 108.146 32.822C107.846 33.521 107.547 34.219 107.148 34.818C106.749 35.417 106.35 36.115 105.951 36.713C105.552 37.312 105.053 37.91 104.554 38.509C104.056 39.108 103.557 39.606 102.958 40.205C102.658 40.505 102.36 40.804 101.961 41.003C101.661 41.203 101.461 41.403 101.162 41.701C100.564 42.201 99.965 42.599 99.267 42.998C98.668 43.398 97.97 43.797 97.272 44.096L95.176 44.994C94.478 45.293 93.78 45.493 93.081 45.692C92.383 45.892 91.585 46.092 90.886 46.191C90.088 46.291 89.39 46.391 88.692 46.491C88.192 46.491 87.594 46.59 87.095 46.59C86.297 46.59 85.599 46.49 84.901 46.49C84.102 46.39 83.404 46.29 82.706 46.19C81.9492 46.098 81.2099 45.8965 80.511 45.592C81.209 45.492 82.007 45.492 82.706 45.293C83.504 45.193 84.202 44.993 84.901 44.794C85.599 44.594 86.397 44.395 86.996 44.096L89.091 43.198C89.789 42.898 90.388 42.5 91.086 42.101C91.685 41.701 92.383 41.203 92.982 40.804C93.58 40.304 94.179 39.806 94.678 39.307C95.276 38.808 95.775 38.21 96.274 37.711C96.773 37.112 97.272 36.514 97.671 35.915C97.771 35.815 97.771 35.715 97.871 35.615C98.169 35.117 98.568 34.518 98.868 34.02C99.2401 33.3753 99.573 32.7087 99.865 32.024C100.165 31.326 100.465 30.627 100.664 29.929L101.262 27.834C101.362 27.036 101.562 26.338 101.562 25.639C101.662 24.841 101.662 24.143 101.662 23.444C101.662 22.946 101.662 22.347 101.562 21.848C101.462 21.05 101.362 20.352 101.262 19.653C101.162 18.855 100.962 18.157 100.763 17.458C100.563 16.76 100.264 16.062 100.065 15.363C99.765 14.665 99.466 13.967 99.167 13.368C98.768 12.67 98.469 12.071 98.07 11.373C97.67 10.774 97.172 10.175 96.773 9.577C96.274 8.978 95.775 8.479 95.276 7.881C94.977 7.581 94.678 7.282 94.378 7.083C92.882 5.886 91.385 4.888 89.789 3.89C89.589 3.79 89.39 3.69 89.091 3.59C87.794 2.494 86.797 2.194 85.8 1.795Z" fill="#2B7B8C"/>
</g>
<defs>
<clipPath id="clip0_115_53">
<rect width="128" height="128" fill="white"/>
</clipPath>
</defs>
</svg>
