<svg width="128" height="128" viewBox="0 0 128 128" fill="none" xmlns="http://www.w3.org/2000/svg">
<path d="M63.9988 0C63.0202 0.000813206 62.0588 0.257282 61.2098 0.744L11.4448 29.646L28.8518 61.58L64.5918 0.053C64.3962 0.0282371 64.1997 0.0105589 64.0028 0L63.9988 0ZM66.3148 0.605V0.607L101.509 61.184L118.054 30.735C117.745 30.4225 117.4 30.1482 117.026 29.918L91.3798 15.024L66.6998 0.754H66.6928C66.5728 0.693 66.4408 0.655 66.3148 0.604V0.605ZM65.2908 0.853L29.4168 62.616L64.9958 127.894C65.0958 127.874 65.1938 127.871 65.2928 127.844L100.946 62.22L65.2908 0.853ZM10.5858 30.176C9.08384 31.207 8.23584 32.928 8.23584 34.771V93.249C8.23584 94.179 8.48984 95.087 8.91984 95.894L28.2598 62.601L10.5858 30.176ZM118.747 31.576L102.104 62.205L119.764 92.603V34.77C119.764 33.62 119.382 32.506 118.747 31.576ZM101.543 63.243L66.7348 127.305L66.7898 127.277L117.033 98.094L117.037 98.092C118.439 97.299 119.337 95.937 119.641 94.399L101.543 63.243ZM28.8248 63.637L9.54484 96.832C9.95084 97.332 10.4298 97.768 10.9748 98.098L10.9758 98.102L60.6778 126.968L61.2078 127.273L61.2138 127.275H61.2158C61.4728 127.426 61.7438 127.541 62.0138 127.647C62.1578 127.701 62.3018 127.751 62.4468 127.793C62.5718 127.83 62.6978 127.855 62.8228 127.882C63.0648 127.933 63.3058 127.97 63.5498 127.99C63.6678 128 63.7868 128 63.9048 128L28.8248 63.637Z" fill="#2B7B8C"/>
</svg>
