<svg width="128" height="128" viewBox="0 0 128 128" fill="none" xmlns="http://www.w3.org/2000/svg">
<path d="M64 30C28.654 30 0 45.075 0 63.668C0 82.261 28.654 97.336 64 97.336C99.345 97.336 128 82.261 128 63.668C128 45.075 99.346 30 64 30ZM58.018 39.81H65.311V39.813L63.566 48.781H70.062C74.149 48.781 76.97 49.495 78.52 50.92C80.073 52.347 80.537 54.657 79.918 57.85L76.865 73.55H69.457L72.359 58.621C72.689 56.923 72.567 55.766 71.994 55.148C71.421 54.531 70.201 54.223 68.336 54.223H62.508L58.752 73.548H51.461L58.018 39.81ZM26.73 48.782H40.863C45.115 48.782 48.218 49.898 50.168 52.13C52.118 54.362 52.704 57.476 51.926 61.476C51.606 63.125 51.063 64.63 50.301 65.996C49.538 67.36 48.541 68.609 47.311 69.741C45.843 71.114 44.213 72.094 42.42 72.677C40.626 73.262 38.34 73.552 35.562 73.552H29.268L27.523 82.522H20.173L26.73 48.782ZM84.096 48.782H98.226C102.478 48.782 105.579 49.898 107.529 52.13H107.531C109.481 54.362 110.069 57.476 109.291 61.476C108.971 63.125 108.43 64.63 107.668 65.996C106.905 67.36 105.908 68.609 104.676 69.741C103.209 71.114 101.578 72.094 99.783 72.677C97.989 73.262 95.706 73.552 92.928 73.552H86.633L84.889 82.522H77.539L84.096 48.782ZM33.045 54.107L30.303 68.227H34.771C37.734 68.227 39.943 67.671 41.393 66.554C42.843 65.438 43.821 63.573 44.33 60.962C44.815 58.455 44.594 56.683 43.664 55.653C42.734 54.621 40.874 54.106 38.08 54.106L33.045 54.107ZM90.408 54.107L87.664 68.227H92.134C95.099 68.227 97.304 67.671 98.756 66.554C100.205 65.438 101.183 63.573 101.691 60.962C102.178 58.455 101.957 56.683 101.027 55.653C100.097 54.621 98.235 54.106 95.443 54.106L90.408 54.107Z" fill="#2B7B8C"/>
</svg>
