<svg width="128" height="128" viewBox="0 0 128 128" fill="none" xmlns="http://www.w3.org/2000/svg">
<g clip-path="url(#clip0_115_61)">
<path d="M66.457 0.0137016C65.3038 -0.0624243 64.1519 0.179723 63.1269 0.71371C62.102 1.2477 61.2435 2.053 60.645 3.0417L12.775 81.1137C12.1513 82.1305 11.8252 83.3018 11.8337 84.4946C11.8421 85.6874 12.1849 86.8539 12.823 87.8617L36.391 125.048C37.1386 126.22 38.248 127.116 39.5511 127.6C40.8541 128.084 42.2795 128.13 43.611 127.731L111.623 107.324C112.497 107.062 113.304 106.616 113.99 106.016C114.676 105.416 115.226 104.675 115.601 103.844C115.977 103.013 116.169 102.111 116.166 101.199C116.163 100.288 115.964 99.387 115.583 98.5587L71.863 3.7087C71.3876 2.65679 70.6321 1.75579 69.6793 1.10415C68.7264 0.452503 67.6128 0.0752829 66.46 0.0137016H66.457ZM68.252 23.9637C68.7605 23.9029 69.2749 24.01 69.7169 24.2688C70.1588 24.5275 70.5041 24.9236 70.7 25.3967L100.86 95.1807C100.994 95.4908 101.061 95.8259 101.057 96.1639C101.052 96.5018 100.976 96.8349 100.833 97.1412C100.69 97.4475 100.484 97.72 100.228 97.9407C99.9719 98.1615 99.672 98.3254 99.348 98.4217L52.352 112.446C51.9571 112.563 51.5386 112.576 51.1371 112.484C50.7356 112.392 50.3647 112.198 50.0604 111.92C49.7561 111.642 49.5288 111.291 49.4005 110.899C49.2722 110.508 49.2472 110.09 49.328 109.686L66.158 25.8737C66.2523 25.3703 66.5083 24.9114 66.8872 24.5666C67.266 24.2219 67.747 24.0102 68.257 23.9637H68.252Z" fill="#2B7B8C"/>
</g>
<defs>
<clipPath id="clip0_115_61">
<rect width="128" height="128" fill="white"/>
</clipPath>
</defs>
</svg>
