<svg width="128" height="128" viewBox="0 0 128 128" fill="none" xmlns="http://www.w3.org/2000/svg">
<path d="M64.0001 75.3C70.2961 75.3 75.4001 70.196 75.4001 63.9C75.4001 57.604 70.2961 52.5 64.0001 52.5C57.7041 52.5 52.6001 57.604 52.6001 63.9C52.6001 70.196 57.7041 75.3 64.0001 75.3Z" fill="#2B7B8C"/>
<path d="M107.3 45.1C105.1 44.3 102.8 43.5 100.4 42.8C101 40.4 101.5 38 101.9 35.7C104 22.5 101.7 13.2 95.2999 9.6C93.3999 8.5 91.2999 8 88.8999 8C81.8999 8 72.9999 13.2 63.9999 21.9C54.9999 13.2 46.0999 8 39.0999 8C36.6999 8 34.5999 8.5 32.6999 9.6C26.2999 13.3 23.9999 22.6 26.0999 35.7C26.4999 38 26.9999 40.4 27.5999 42.8C25.1999 43.5 22.8999 44.2 20.6999 45.1C8.1999 49.9 1.3999 56.5 1.3999 63.9C1.3999 71.3 8.2999 77.9 20.6999 82.7C22.8999 83.5 25.1999 84.3 27.5999 85C26.9999 87.4 26.4999 89.8 26.0999 92.1C23.9999 105.3 26.2999 114.6 32.6999 118.2C34.5999 119.3 36.6999 119.8 39.0999 119.8C46.1999 119.8 55.0999 114.6 63.9999 105.9C72.9999 114.6 81.8999 119.8 88.8999 119.8C91.2999 119.8 93.3999 119.3 95.2999 118.2C101.7 114.5 104 105.2 101.9 92.1C101.5 89.8 101 87.4 100.4 85C102.8 84.3 105.1 83.6 107.3 82.7C119.8 77.9 126.6 71.3 126.6 63.9C126.6 56.5 119.8 49.9 107.3 45.1ZM92.4999 14.6C96.5999 17 97.9999 24.4 96.2999 34.9C95.9999 37 95.4999 39.2 94.8999 41.5C89.6999 40.3 84.1999 39.5 78.3999 39C74.9999 34.2 71.4999 29.9 67.9999 26C75.3999 18.7 82.8999 13.7 88.9999 13.7C90.2999 13.7 91.4999 14 92.4999 14.6ZM81.2999 73.9C79.4999 77.1 77.3999 80.3 75.1999 83.5C71.4999 83.8 67.7999 83.9 63.9999 83.9C60.0999 83.9 56.3999 83.8 52.7999 83.5C50.5999 80.3 48.5999 77.1 46.7999 73.9C44.8999 70.6 43.0999 67.2 41.4999 63.9C43.0999 60.6 44.8999 57.2 46.7999 53.9C48.5999 50.7 50.6999 47.5 52.8999 44.3C56.5999 44 60.2999 43.9 64.0999 43.9C67.9999 43.9 71.6999 44 75.2999 44.3C77.4999 47.5 79.4999 50.7 81.2999 53.9C83.1999 57.2 84.9999 60.6 86.5999 63.9C84.8999 67.2 83.1999 70.5 81.2999 73.9ZM89.5999 70.6C91.0999 74.1 92.2999 77.5 93.3999 80.9C89.9999 81.7 86.3999 82.3 82.5999 82.8C83.7999 80.9 85.0999 78.9 86.1999 76.8C87.3999 74.7 88.4999 72.6 89.5999 70.6ZM63.9999 97.7C61.5999 95.1 59.2999 92.3 57.0999 89.4C59.3999 89.5 61.6999 89.6 63.9999 89.6C66.2999 89.6 68.5999 89.5 70.8999 89.4C68.6999 92.3 66.3999 95.1 63.9999 97.7ZM45.3999 82.7C41.5999 82.2 37.9999 81.6 34.5999 80.8C35.6999 77.5 36.8999 74 38.3999 70.5C39.4999 72.5 40.5999 74.6 41.7999 76.6C42.9999 78.8 44.1999 80.7 45.3999 82.7ZM38.3999 57.2C36.8999 53.7 35.6999 50.3 34.5999 46.9C37.9999 46.1 41.5999 45.5 45.3999 45C44.1999 46.9 42.8999 48.9 41.7999 51C40.5999 53.1 39.4999 55.2 38.3999 57.2ZM63.9999 30.1C66.3999 32.7 68.6999 35.5 70.8999 38.4C68.5999 38.3 66.2999 38.2 63.9999 38.2C61.6999 38.2 59.3999 38.3 57.0999 38.4C59.2999 35.5 61.5999 32.7 63.9999 30.1ZM86.1999 51.1L82.5999 45.1C86.3999 45.6 89.9999 46.2 93.3999 47C92.2999 50.3 91.0999 53.8 89.5999 57.3C88.4999 55.2 87.3999 53.1 86.1999 51.1ZM31.6999 34.9C29.9999 24.4 31.3999 17 35.4999 14.6C36.4999 14 37.6999 13.7 38.9999 13.7C44.9999 13.7 52.4999 18.6 59.9999 26C56.4999 29.8 52.9999 34.2 49.5999 39C43.7999 39.5 38.2999 40.4 33.0999 41.5C32.4999 39.2 32.0999 37 31.6999 34.9ZM6.9999 63.9C6.9999 59.2 12.6999 54.2 22.6999 50.5C24.6999 49.7 26.8999 49 29.0999 48.4C30.6999 53.4 32.6999 58.7 35.0999 64C32.6999 69.3 30.5999 74.5 29.0999 79.5C15.2999 75.5 6.9999 69.5 6.9999 63.9ZM35.4999 113.2C31.3999 110.8 29.9999 103.4 31.6999 92.9C31.9999 90.8 32.4999 88.6 33.0999 86.3C38.2999 87.5 43.7999 88.3 49.5999 88.8C52.9999 93.6 56.4999 97.9 59.9999 101.8C52.5999 109.1 45.0999 114.1 38.9999 114.1C37.6999 114.1 36.4999 113.8 35.4999 113.2ZM96.2999 92.9C97.9999 103.4 96.5999 110.8 92.4999 113.2C91.4999 113.8 90.2999 114.1 88.9999 114.1C82.9999 114.1 75.4999 109.2 67.9999 101.8C71.4999 98 74.9999 93.6 78.3999 88.8C84.1999 88.3 89.6999 87.4 94.8999 86.3C95.4999 88.6 95.8999 90.8 96.2999 92.9ZM105.3 77.3C103.3 78.1 101.1 78.8 98.8999 79.4C97.2999 74.4 95.2999 69.1 92.8999 63.8C95.2999 58.5 97.3999 53.3 98.8999 48.3C112.7 52.3 121 58.3 121 63.9C121 68.6 115.2 73.6 105.3 77.3Z" fill="#2B7B8C"/>
</svg>
