<svg width="128" height="128" viewBox="0 0 128 128" fill="none" xmlns="http://www.w3.org/2000/svg">
<path fill-rule="evenodd" clip-rule="evenodd" d="M64.0938 126.621C98.3688 126.569 126.115 98.688 126.115 64.296C126.115 30.463 98.4968 2.599 65.5018 2.01C30.8498 1.392 1.89377 29.51 1.88477 63.607C1.87477 98.686 29.4968 126.671 64.0938 126.621ZM63.9928 5.027C96.8998 5.016 123.119 31.752 123.109 65.307C123.098 96.986 96.1838 123.487 64.0168 123.494C31.2458 123.501 4.89177 96.931 4.89277 63.886C4.89477 31.693 31.6588 5.038 63.9928 5.027ZM39.1568 36.293C39.6948 38.086 38.1888 38.71 36.5878 38.835C34.9028 38.965 33.2188 39.092 31.2628 39.241C37.7188 58.475 44.0778 77.424 50.5878 96.814C51.0518 96.055 51.2428 95.841 51.3268 95.591C54.9008 84.909 58.4948 74.234 61.9778 63.522C62.2958 62.545 62.1378 61.251 61.7898 60.247C59.9468 54.927 57.7388 49.723 56.1228 44.339C55.0178 40.653 53.5518 38.268 49.1948 38.695C48.4528 38.768 47.5468 37.171 46.7158 36.346C47.7208 35.746 48.7188 34.642 49.7328 34.627C58.6049 34.4907 67.4787 34.4933 76.3508 34.635C77.3688 34.652 78.3668 35.785 79.3718 36.4C78.4918 37.204 77.7328 38.41 76.7038 38.721C75.0528 39.219 73.2218 39.125 71.2458 39.301L90.5948 96.861C93.5258 87.125 96.2528 78.185 98.9048 69.222C101.271 61.221 99.8608 53.749 95.5828 46.702C94.2968 44.583 92.7168 42.527 91.9878 40.216C91.1598 37.587 90.4718 34.594 90.9108 31.957C91.6558 27.488 95.0848 25.269 99.7248 24.844C74.3328 1.278 34.4308 9.714 19.7278 35.319C25.3878 35.058 30.7918 34.715 36.1998 34.641C37.2218 34.628 38.9168 35.492 39.1568 36.293ZM49.2738 114.264C49.1558 114.609 49.1488 114.993 49.0558 115.566C59.9988 118.6 70.7308 118.381 81.7148 114.68L64.9348 68.72C59.5648 84.331 54.4148 99.295 49.2738 114.264ZM40.8178 112.186L15.5368 42.836C4.13177 65.114 12.8078 99.104 40.8178 112.186ZM117.246 67.624C118.048 57.09 114.414 42.505 111.276 40.499C110.926 44.374 111.17 48.685 110.058 52.613C107.441 61.868 104.241 70.962 101.159 80.081C97.8088 89.993 94.3268 99.86 90.9018 109.747C106.994 100.208 115.837 86.129 117.246 67.624Z" fill="#2B7B8C"/>
</svg>
