<svg width="194" height="79" viewBox="0 0 194 79" fill="none" xmlns="http://www.w3.org/2000/svg">
<path d="M8.092 22.6L6.796 28H0.604L8.236 3.052H15.4L23.032 28H16.696L15.4 22.6H8.092ZM14.428 18.352L11.728 7.3L9.028 18.352H14.428ZM35.0779 21.988C35.0779 23.404 35.8939 24.112 37.5259 24.112C38.4139 24.112 39.3259 23.92 40.2619 23.536L41.5939 27.352C40.0579 28.192 38.2219 28.612 36.0859 28.612C33.8539 28.612 32.1739 27.976 31.0459 26.704C29.9419 25.408 29.3899 23.596 29.3899 21.268V5.176H23.7739V1.288H35.0779V21.988ZM51.6239 20.116C51.9839 23.02 53.5199 24.472 56.2319 24.472C57.8639 24.472 59.4959 23.944 61.1279 22.888L63.3959 25.984C62.4599 26.8 61.3439 27.448 60.0479 27.928C58.7519 28.384 57.3239 28.612 55.7639 28.612C53.6279 28.612 51.8159 28.192 50.3279 27.352C48.8399 26.488 47.7119 25.3 46.9439 23.788C46.1999 22.252 45.8279 20.476 45.8279 18.46C45.8279 16.54 46.1879 14.812 46.9079 13.276C47.6519 11.716 48.7199 10.492 50.1119 9.604C51.5279 8.692 53.2079 8.236 55.1519 8.236C56.9759 8.236 58.5599 8.632 59.9039 9.424C61.2479 10.192 62.2799 11.32 62.9999 12.808C63.7439 14.272 64.1159 16.024 64.1159 18.064C64.1159 18.856 64.0799 19.54 64.0079 20.116H51.6239ZM55.1519 12.052C54.1199 12.052 53.2919 12.436 52.6679 13.204C52.0439 13.948 51.6719 15.1 51.5519 16.66H58.5719C58.5239 13.588 57.3839 12.052 55.1519 12.052ZM66.5498 28L73.1018 17.956L67.1618 8.884H73.5338L76.5938 15.004L79.5458 8.884H85.5938L79.9778 17.74L86.5658 28H80.1218L76.3418 20.836L72.7058 28H66.5498ZM105.956 22.492C105.956 23.188 106.052 23.704 106.244 24.04C106.436 24.376 106.76 24.628 107.216 24.796L106.028 28.54C104.876 28.42 103.916 28.168 103.148 27.784C102.38 27.376 101.78 26.788 101.348 26.02C100.628 26.86 99.7158 27.508 98.6118 27.964C97.5078 28.396 96.3318 28.612 95.0838 28.612C93.1158 28.612 91.5438 28.06 90.3678 26.956C89.1918 25.828 88.6038 24.376 88.6038 22.6C88.6038 20.536 89.4198 18.94 91.0518 17.812C92.6838 16.66 94.9758 16.084 97.9277 16.084H100.484V15.4C100.484 13.432 99.2238 12.448 96.7038 12.448C96.0558 12.448 95.2398 12.544 94.2558 12.736C93.2958 12.904 92.3598 13.144 91.4478 13.456L90.1518 9.676C91.3758 9.22 92.6478 8.872 93.9678 8.632C95.3118 8.368 96.5238 8.236 97.6038 8.236C103.172 8.236 105.956 10.492 105.956 15.004V22.492ZM97.0278 24.544C97.6758 24.544 98.3238 24.364 98.9718 24.004C99.6438 23.62 100.148 23.104 100.484 22.456V19.324H99.0798C96.0078 19.324 94.4718 20.284 94.4718 22.204C94.4718 22.948 94.6878 23.524 95.1198 23.932C95.5758 24.34 96.2118 24.544 97.0278 24.544ZM111.45 8.884H116.418L116.814 11.08C117.678 10.12 118.578 9.412 119.514 8.956C120.474 8.476 121.554 8.236 122.754 8.236C124.41 8.236 125.694 8.74 126.606 9.748C127.542 10.756 128.01 12.16 128.01 13.96V28H122.322V15.616C122.322 14.416 122.19 13.588 121.926 13.132C121.662 12.676 121.182 12.448 120.486 12.448C119.91 12.448 119.346 12.64 118.794 13.024C118.266 13.384 117.714 13.924 117.138 14.644V28H111.45V8.884ZM149.596 1.288V28H144.556L144.268 25.912C143.692 26.728 142.96 27.388 142.072 27.892C141.184 28.372 140.152 28.612 138.976 28.612C136.672 28.612 134.92 27.7 133.72 25.876C132.544 24.052 131.956 21.556 131.956 18.388C131.956 16.42 132.268 14.668 132.892 13.132C133.516 11.596 134.404 10.396 135.556 9.532C136.708 8.668 138.052 8.236 139.588 8.236C141.316 8.236 142.756 8.836 143.908 10.036V0.675998L149.596 1.288ZM141.1 12.412C140.068 12.412 139.264 12.904 138.688 13.888C138.112 14.848 137.824 16.36 137.824 18.424C137.824 20.632 138.076 22.192 138.58 23.104C139.108 23.992 139.84 24.436 140.776 24.436C141.976 24.436 143.02 23.704 143.908 22.24V13.996C143.5 13.468 143.068 13.072 142.612 12.808C142.18 12.544 141.676 12.412 141.1 12.412ZM169.202 8.308C170.354 8.308 171.41 8.5 172.37 8.884L171.326 16.876H167.726V13.348C166.67 13.54 165.734 14.116 164.918 15.076C164.102 16.036 163.466 17.248 163.01 18.712V24.184H166.79V28H154.802V24.184H157.322V12.664H154.802V8.884H161.678L162.686 13.168C163.382 11.536 164.258 10.324 165.314 9.532C166.37 8.716 167.666 8.308 169.202 8.308ZM181.14 20.116C181.5 23.02 183.036 24.472 185.748 24.472C187.38 24.472 189.012 23.944 190.644 22.888L192.912 25.984C191.976 26.8 190.86 27.448 189.564 27.928C188.268 28.384 186.84 28.612 185.28 28.612C183.144 28.612 181.332 28.192 179.844 27.352C178.356 26.488 177.228 25.3 176.46 23.788C175.716 22.252 175.344 20.476 175.344 18.46C175.344 16.54 175.704 14.812 176.424 13.276C177.168 11.716 178.236 10.492 179.628 9.604C181.044 8.692 182.724 8.236 184.668 8.236C186.492 8.236 188.076 8.632 189.42 9.424C190.764 10.192 191.796 11.32 192.516 12.808C193.26 14.272 193.632 16.024 193.632 18.064C193.632 18.856 193.596 19.54 193.523 20.116H181.14ZM184.668 12.052C183.636 12.052 182.808 12.436 182.184 13.204C181.56 13.948 181.188 15.1 181.068 16.66H188.088C188.04 13.588 186.9 12.052 184.668 12.052ZM21.988 71H16.804L16.516 60.308C16.492 59.78 16.48 59.06 16.48 58.148C16.48 56.948 16.516 55.784 16.588 54.656C16.66 53.504 16.744 52.304 16.84 51.056L14.032 66.752H9.568L6.508 51.056C6.772 53.816 6.904 56.3 6.904 58.508L6.868 60.416L6.688 71H1.612L3.016 46.052H9.1L11.872 62.18L14.5 46.052H20.584L21.988 71ZM41.1979 65.492C41.1979 66.188 41.2939 66.704 41.4859 67.04C41.6779 67.376 42.0019 67.628 42.4579 67.796L41.2699 71.54C40.1179 71.42 39.1579 71.168 38.3899 70.784C37.6219 70.376 37.0219 69.788 36.5899 69.02C35.8699 69.86 34.9579 70.508 33.8539 70.964C32.7499 71.396 31.5739 71.612 30.3259 71.612C28.3579 71.612 26.7859 71.06 25.6099 69.956C24.4339 68.828 23.8459 67.376 23.8459 65.6C23.8459 63.536 24.6619 61.94 26.2939 60.812C27.9259 59.66 30.2179 59.084 33.1699 59.084H35.7259V58.4C35.7259 56.432 34.4659 55.448 31.9459 55.448C31.2979 55.448 30.4819 55.544 29.4979 55.736C28.5379 55.904 27.6019 56.144 26.6899 56.456L25.3939 52.676C26.6179 52.22 27.8899 51.872 29.2099 51.632C30.5539 51.368 31.7659 51.236 32.8459 51.236C38.4139 51.236 41.1979 53.492 41.1979 58.004V65.492ZM32.2699 67.544C32.9179 67.544 33.5659 67.364 34.2139 67.004C34.8859 66.62 35.3899 66.104 35.7259 65.456V62.324H34.3219C31.2499 62.324 29.7139 63.284 29.7139 65.204C29.7139 65.948 29.9299 66.524 30.3619 66.932C30.8179 67.34 31.4539 67.544 32.2699 67.544ZM61.2719 51.308C62.4239 51.308 63.4799 51.5 64.4399 51.884L63.3959 59.876H59.7959V56.348C58.7399 56.54 57.8039 57.116 56.9879 58.076C56.1719 59.036 55.5359 60.248 55.0799 61.712V67.184H58.8599V71H46.8719V67.184H49.3919V55.664H46.8719V51.884H53.7479L54.7559 56.168C55.4519 54.536 56.3279 53.324 57.3839 52.532C58.4399 51.716 59.7359 51.308 61.2719 51.308ZM74.9378 51.236C75.8738 51.236 76.7378 51.428 77.5298 51.812C78.3458 52.172 79.0418 52.712 79.6178 53.432L79.8698 51.884H84.8378V78.992L79.1498 78.38V69.38C77.9018 70.868 76.2698 71.612 74.2538 71.612C71.8778 71.612 70.1138 70.712 68.9618 68.912C67.8338 67.112 67.2698 64.604 67.2698 61.388C67.2698 59.42 67.5698 57.668 68.1698 56.132C68.7698 54.596 69.6458 53.396 70.7978 52.532C71.9498 51.668 73.3298 51.236 74.9378 51.236ZM76.4138 55.412C75.3338 55.412 74.5178 55.892 73.9658 56.852C73.4138 57.812 73.1378 59.336 73.1378 61.424C73.1378 63.656 73.3778 65.216 73.8578 66.104C74.3618 66.968 75.0938 67.4 76.0538 67.4C77.2778 67.4 78.3098 66.68 79.1498 65.24V56.996C78.7658 56.468 78.3458 56.072 77.8898 55.808C77.4578 55.544 76.9658 55.412 76.4138 55.412ZM95.5518 64.952C95.5518 65.84 95.7078 66.476 96.0198 66.86C96.3558 67.22 96.8478 67.4 97.4958 67.4C98.0718 67.4 98.6598 67.22 99.2598 66.86C99.8598 66.476 100.352 65.96 100.736 65.312V51.884H106.424V71H101.456L101.204 68.768C100.58 69.68 99.7398 70.388 98.6838 70.892C97.6278 71.372 96.5118 71.612 95.3358 71.612C93.5358 71.612 92.1678 71.096 91.2318 70.064C90.3198 69.008 89.8638 67.544 89.8638 65.672V51.884H95.5518V64.952ZM116.382 63.116C116.742 66.02 118.278 67.472 120.99 67.472C122.622 67.472 124.254 66.944 125.886 65.888L128.154 68.984C127.218 69.8 126.102 70.448 124.806 70.928C123.51 71.384 122.082 71.612 120.522 71.612C118.386 71.612 116.574 71.192 115.086 70.352C113.598 69.488 112.47 68.3 111.702 66.788C110.958 65.252 110.586 63.476 110.586 61.46C110.586 59.54 110.946 57.812 111.666 56.276C112.41 54.716 113.478 53.492 114.87 52.604C116.286 51.692 117.966 51.236 119.91 51.236C121.734 51.236 123.318 51.632 124.662 52.424C126.006 53.192 127.038 54.32 127.758 55.808C128.502 57.272 128.874 59.024 128.874 61.064C128.874 61.856 128.838 62.54 128.766 63.116H116.382ZM119.91 55.052C118.878 55.052 118.05 55.436 117.426 56.204C116.802 56.948 116.43 58.1 116.31 59.66H123.33C123.282 56.588 122.142 55.052 119.91 55.052ZM140.704 67.544C141.688 67.544 142.456 67.4 143.008 67.112C143.584 66.8 143.872 66.344 143.872 65.744C143.872 65.312 143.752 64.964 143.512 64.7C143.296 64.436 142.876 64.184 142.252 63.944C141.628 63.68 140.656 63.368 139.336 63.008C137.416 62.504 135.952 61.808 134.944 60.92C133.936 60.008 133.432 58.76 133.432 57.176C133.432 55.424 134.152 53.996 135.592 52.892C137.056 51.788 139.096 51.236 141.712 51.236C144.736 51.236 147.316 52.016 149.452 53.576L147.184 56.924C145.432 55.844 143.668 55.304 141.892 55.304C140.956 55.304 140.26 55.424 139.804 55.664C139.372 55.904 139.156 56.276 139.156 56.78C139.156 57.116 139.264 57.404 139.48 57.644C139.72 57.86 140.152 58.088 140.776 58.328C141.424 58.568 142.384 58.868 143.656 59.228C145.024 59.612 146.14 60.032 147.004 60.488C147.892 60.944 148.576 61.556 149.056 62.324C149.536 63.092 149.776 64.076 149.776 65.276C149.776 66.62 149.368 67.772 148.552 68.732C147.736 69.692 146.644 70.412 145.276 70.892C143.908 71.372 142.396 71.612 140.74 71.612C138.964 71.612 137.356 71.36 135.916 70.856C134.476 70.352 133.252 69.644 132.244 68.732L135.088 65.528C136.816 66.872 138.688 67.544 140.704 67.544Z" fill="white"/>
</svg>
