<svg width="366" height="36" viewBox="0 0 366 36" fill="none" xmlns="http://www.w3.org/2000/svg">
<path d="M8.092 22.6L6.796 28H0.604L8.236 3.052H15.4L23.032 28H16.696L15.4 22.6H8.092ZM14.428 18.352L11.728 7.3L9.028 18.352H14.428ZM35.0779 21.988C35.0779 23.404 35.8939 24.112 37.5259 24.112C38.4139 24.112 39.3259 23.92 40.2619 23.536L41.5939 27.352C40.0579 28.192 38.2219 28.612 36.0859 28.612C33.8539 28.612 32.1739 27.976 31.0459 26.704C29.9419 25.408 29.3899 23.596 29.3899 21.268V5.176H23.7739V1.288H35.0779V21.988ZM51.6239 20.116C51.9839 23.02 53.5199 24.472 56.2319 24.472C57.8639 24.472 59.4959 23.944 61.1279 22.888L63.3959 25.984C62.4599 26.8 61.3439 27.448 60.0479 27.928C58.7519 28.384 57.3239 28.612 55.7639 28.612C53.6279 28.612 51.8159 28.192 50.3279 27.352C48.8399 26.488 47.7119 25.3 46.9439 23.788C46.1999 22.252 45.8279 20.476 45.8279 18.46C45.8279 16.54 46.1879 14.812 46.9079 13.276C47.6519 11.716 48.7199 10.492 50.1119 9.604C51.5279 8.692 53.2079 8.236 55.1519 8.236C56.9759 8.236 58.5599 8.632 59.9039 9.424C61.2479 10.192 62.2799 11.32 62.9999 12.808C63.7439 14.272 64.1159 16.024 64.1159 18.064C64.1159 18.856 64.0799 19.54 64.0079 20.116H51.6239ZM55.1519 12.052C54.1199 12.052 53.2919 12.436 52.6679 13.204C52.0439 13.948 51.6719 15.1 51.5519 16.66H58.5719C58.5239 13.588 57.3839 12.052 55.1519 12.052ZM66.5498 28L73.1018 17.956L67.1618 8.884H73.5338L76.5938 15.004L79.5458 8.884H85.5938L79.9778 17.74L86.5658 28H80.1218L76.3418 20.836L72.7058 28H66.5498ZM105.956 22.492C105.956 23.188 106.052 23.704 106.244 24.04C106.436 24.376 106.76 24.628 107.216 24.796L106.028 28.54C104.876 28.42 103.916 28.168 103.148 27.784C102.38 27.376 101.78 26.788 101.348 26.02C100.628 26.86 99.7158 27.508 98.6118 27.964C97.5078 28.396 96.3318 28.612 95.0838 28.612C93.1158 28.612 91.5438 28.06 90.3678 26.956C89.1918 25.828 88.6038 24.376 88.6038 22.6C88.6038 20.536 89.4198 18.94 91.0518 17.812C92.6838 16.66 94.9758 16.084 97.9277 16.084H100.484V15.4C100.484 13.432 99.2238 12.448 96.7038 12.448C96.0558 12.448 95.2398 12.544 94.2558 12.736C93.2958 12.904 92.3598 13.144 91.4478 13.456L90.1518 9.676C91.3758 9.22 92.6478 8.872 93.9678 8.632C95.3118 8.368 96.5238 8.236 97.6038 8.236C103.172 8.236 105.956 10.492 105.956 15.004V22.492ZM97.0278 24.544C97.6758 24.544 98.3238 24.364 98.9718 24.004C99.6438 23.62 100.148 23.104 100.484 22.456V19.324H99.0798C96.0078 19.324 94.4718 20.284 94.4718 22.204C94.4718 22.948 94.6878 23.524 95.1198 23.932C95.5758 24.34 96.2118 24.544 97.0278 24.544ZM111.45 8.884H116.418L116.814 11.08C117.678 10.12 118.578 9.412 119.514 8.956C120.474 8.476 121.554 8.236 122.754 8.236C124.41 8.236 125.694 8.74 126.606 9.748C127.542 10.756 128.01 12.16 128.01 13.96V28H122.322V15.616C122.322 14.416 122.19 13.588 121.926 13.132C121.662 12.676 121.182 12.448 120.486 12.448C119.91 12.448 119.346 12.64 118.794 13.024C118.266 13.384 117.714 13.924 117.138 14.644V28H111.45V8.884ZM149.596 1.288V28H144.556L144.268 25.912C143.692 26.728 142.96 27.388 142.072 27.892C141.184 28.372 140.152 28.612 138.976 28.612C136.672 28.612 134.92 27.7 133.72 25.876C132.544 24.052 131.956 21.556 131.956 18.388C131.956 16.42 132.268 14.668 132.892 13.132C133.516 11.596 134.404 10.396 135.556 9.532C136.708 8.668 138.052 8.236 139.588 8.236C141.316 8.236 142.756 8.836 143.908 10.036V0.675998L149.596 1.288ZM141.1 12.412C140.068 12.412 139.264 12.904 138.688 13.888C138.112 14.848 137.824 16.36 137.824 18.424C137.824 20.632 138.076 22.192 138.58 23.104C139.108 23.992 139.84 24.436 140.776 24.436C141.976 24.436 143.02 23.704 143.908 22.24V13.996C143.5 13.468 143.068 13.072 142.612 12.808C142.18 12.544 141.676 12.412 141.1 12.412ZM169.202 8.308C170.354 8.308 171.41 8.5 172.37 8.884L171.326 16.876H167.726V13.348C166.67 13.54 165.734 14.116 164.918 15.076C164.102 16.036 163.466 17.248 163.01 18.712V24.184H166.79V28H154.802V24.184H157.322V12.664H154.802V8.884H161.678L162.686 13.168C163.382 11.536 164.258 10.324 165.314 9.532C166.37 8.716 167.666 8.308 169.202 8.308ZM181.14 20.116C181.5 23.02 183.036 24.472 185.748 24.472C187.38 24.472 189.012 23.944 190.644 22.888L192.912 25.984C191.976 26.8 190.86 27.448 189.564 27.928C188.268 28.384 186.84 28.612 185.28 28.612C183.144 28.612 181.332 28.192 179.844 27.352C178.356 26.488 177.228 25.3 176.46 23.788C175.716 22.252 175.344 20.476 175.344 18.46C175.344 16.54 175.704 14.812 176.424 13.276C177.168 11.716 178.236 10.492 179.628 9.604C181.044 8.692 182.724 8.236 184.668 8.236C186.492 8.236 188.076 8.632 189.42 9.424C190.764 10.192 191.796 11.32 192.516 12.808C193.26 14.272 193.632 16.024 193.632 18.064C193.632 18.856 193.596 19.54 193.523 20.116H181.14ZM184.668 12.052C183.636 12.052 182.808 12.436 182.184 13.204C181.56 13.948 181.188 15.1 181.068 16.66H188.088C188.04 13.588 186.9 12.052 184.668 12.052ZM237.847 28H232.663L232.375 17.308C232.351 16.78 232.339 16.06 232.339 15.148C232.339 13.948 232.375 12.784 232.447 11.656C232.519 10.504 232.603 9.304 232.699 8.056L229.891 23.752H225.427L222.367 8.056C222.631 10.816 222.763 13.3 222.763 15.508L222.727 17.416L222.547 28H217.471L218.875 3.052H224.959L227.731 19.18L230.359 3.052H236.443L237.847 28ZM257.057 22.492C257.057 23.188 257.153 23.704 257.345 24.04C257.537 24.376 257.861 24.628 258.317 24.796L257.129 28.54C255.977 28.42 255.017 28.168 254.249 27.784C253.481 27.376 252.881 26.788 252.449 26.02C251.729 26.86 250.817 27.508 249.713 27.964C248.609 28.396 247.433 28.612 246.185 28.612C244.217 28.612 242.645 28.06 241.469 26.956C240.293 25.828 239.705 24.376 239.705 22.6C239.705 20.536 240.521 18.94 242.153 17.812C243.785 16.66 246.077 16.084 249.029 16.084H251.585V15.4C251.585 13.432 250.325 12.448 247.805 12.448C247.157 12.448 246.341 12.544 245.357 12.736C244.397 12.904 243.461 13.144 242.549 13.456L241.253 9.676C242.477 9.22 243.749 8.872 245.069 8.632C246.413 8.368 247.625 8.236 248.705 8.236C254.273 8.236 257.057 10.492 257.057 15.004V22.492ZM248.129 24.544C248.777 24.544 249.425 24.364 250.073 24.004C250.745 23.62 251.249 23.104 251.585 22.456V19.324H250.181C247.109 19.324 245.573 20.284 245.573 22.204C245.573 22.948 245.789 23.524 246.221 23.932C246.677 24.34 247.313 24.544 248.129 24.544ZM277.131 8.308C278.283 8.308 279.339 8.5 280.299 8.884L279.255 16.876H275.655V13.348C274.599 13.54 273.663 14.116 272.847 15.076C272.031 16.036 271.395 17.248 270.939 18.712V24.184H274.719V28H262.731V24.184H265.251V12.664H262.731V8.884H269.607L270.615 13.168C271.311 11.536 272.187 10.324 273.243 9.532C274.299 8.716 275.595 8.308 277.131 8.308ZM290.797 8.236C291.733 8.236 292.597 8.428 293.389 8.812C294.205 9.172 294.901 9.712 295.477 10.432L295.729 8.884H300.697V35.992L295.009 35.38V26.38C293.761 27.868 292.129 28.612 290.113 28.612C287.737 28.612 285.973 27.712 284.821 25.912C283.693 24.112 283.129 21.604 283.129 18.388C283.129 16.42 283.429 14.668 284.029 13.132C284.629 11.596 285.505 10.396 286.657 9.532C287.809 8.668 289.189 8.236 290.797 8.236ZM292.273 12.412C291.193 12.412 290.377 12.892 289.825 13.852C289.273 14.812 288.997 16.336 288.997 18.424C288.997 20.656 289.237 22.216 289.717 23.104C290.221 23.968 290.953 24.4 291.913 24.4C293.137 24.4 294.169 23.68 295.009 22.24V13.996C294.625 13.468 294.205 13.072 293.749 12.808C293.317 12.544 292.825 12.412 292.273 12.412ZM311.411 21.952C311.411 22.84 311.567 23.476 311.879 23.86C312.215 24.22 312.707 24.4 313.355 24.4C313.931 24.4 314.519 24.22 315.119 23.86C315.719 23.476 316.211 22.96 316.595 22.312V8.884H322.283V28H317.315L317.063 25.768C316.439 26.68 315.599 27.388 314.543 27.892C313.487 28.372 312.371 28.612 311.195 28.612C309.395 28.612 308.027 28.096 307.091 27.064C306.179 26.008 305.723 24.544 305.723 22.672V8.884H311.411V21.952ZM332.241 20.116C332.601 23.02 334.137 24.472 336.849 24.472C338.481 24.472 340.113 23.944 341.745 22.888L344.013 25.984C343.077 26.8 341.961 27.448 340.665 27.928C339.369 28.384 337.941 28.612 336.381 28.612C334.245 28.612 332.433 28.192 330.945 27.352C329.457 26.488 328.329 25.3 327.561 23.788C326.817 22.252 326.445 20.476 326.445 18.46C326.445 16.54 326.805 14.812 327.525 13.276C328.269 11.716 329.337 10.492 330.729 9.604C332.145 8.692 333.825 8.236 335.769 8.236C337.593 8.236 339.177 8.632 340.521 9.424C341.865 10.192 342.897 11.32 343.617 12.808C344.361 14.272 344.733 16.024 344.733 18.064C344.733 18.856 344.697 19.54 344.625 20.116H332.241ZM335.769 12.052C334.737 12.052 333.909 12.436 333.285 13.204C332.661 13.948 332.289 15.1 332.169 16.66H339.189C339.141 13.588 338.001 12.052 335.769 12.052ZM356.563 24.544C357.547 24.544 358.315 24.4 358.867 24.112C359.443 23.8 359.731 23.344 359.731 22.744C359.731 22.312 359.611 21.964 359.371 21.7C359.155 21.436 358.735 21.184 358.111 20.944C357.487 20.68 356.515 20.368 355.195 20.008C353.275 19.504 351.811 18.808 350.803 17.92C349.795 17.008 349.291 15.76 349.291 14.176C349.291 12.424 350.011 10.996 351.451 9.892C352.915 8.788 354.955 8.236 357.571 8.236C360.595 8.236 363.175 9.016 365.311 10.576L363.043 13.924C361.291 12.844 359.527 12.304 357.751 12.304C356.815 12.304 356.119 12.424 355.663 12.664C355.231 12.904 355.015 13.276 355.015 13.78C355.015 14.116 355.123 14.404 355.339 14.644C355.579 14.86 356.011 15.088 356.635 15.328C357.283 15.568 358.243 15.868 359.515 16.228C360.883 16.612 361.999 17.032 362.863 17.488C363.751 17.944 364.435 18.556 364.915 19.324C365.395 20.092 365.635 21.076 365.635 22.276C365.635 23.62 365.227 24.772 364.411 25.732C363.595 26.692 362.503 27.412 361.135 27.892C359.767 28.372 358.255 28.612 356.599 28.612C354.823 28.612 353.215 28.36 351.775 27.856C350.335 27.352 349.111 26.644 348.103 25.732L350.947 22.528C352.675 23.872 354.547 24.544 356.563 24.544Z" fill="white"/>
</svg>
