<svg width="44" height="25" viewBox="0 0 44 25" fill="none" xmlns="http://www.w3.org/2000/svg">
<path d="M8.092 19.6L6.796 25H0.604L8.236 0.0519993H15.4L23.032 25H16.696L15.4 19.6H8.092ZM14.428 15.352L11.728 4.3L9.028 15.352H14.428ZM43.5739 25H38.3899L38.1019 14.308C38.0779 13.78 38.0659 13.06 38.0659 12.148C38.0659 10.948 38.1019 9.784 38.1739 8.656C38.2459 7.504 38.3299 6.304 38.4259 5.056L35.6179 20.752H31.1539L28.0939 5.056C28.3579 7.816 28.4899 10.3 28.4899 12.508L28.4539 14.416L28.2739 25H23.1979L24.6019 0.0519993H30.6859L33.4579 16.18L36.0859 0.0519993H42.1699L43.5739 25Z" fill="white"/>
</svg>
